<?xml version="1.0" standalone="no"?><!DOCTYPE svg PUBLIC "-//W3C//DTD SVG 1.1//EN" "http://www.w3.org/Graphics/SVG/1.1/DTD/svg11.dtd" [<!ENTITY nbsp " ">]><svg data-noselect="" viewBox="0 0 600 600" width="600" height="600" preserveAspectRatio="none" version="1.1" xmlns="http://www.w3.org/2000/svg" style="background: rgba(255, 255, 255, 0);"><defs></defs> <g id="shape_wCNxXoDjkj" transform="translate(11.235710144040013,25) rotate(0,290,275) scale(1,1)" filter="" style="cursor: move; opacity: 1;"><g><rect fill="rgba(0,0,0,0)" width="600" height="570" x="-10" y="-10"></rect><svg version="1.1" id="图层_1" xmlns="http://www.w3.org/2000/svg" xmlns:xlink="http://www.w3.org/1999/xlink" x="0px" y="0px" style="enable-background:new 0 0 283.465 283.465;" xml:space="preserve" viewBox="24.124248504638672 35.88700866699219 235.2157745361328 211.6898651123047" width="580" height="550" preserveAspectRatio="none" data-parent="shape_wCNxXoDjkj">
<linearGradient id="SVGID_1_" gradientUnits="userSpaceOnUse" x1="99.1555" y1="237.9055" x2="207.3794" y2="32.2797">
	<stop offset="0" style="" stop-color="#120F82"></stop>
	<stop offset="1" style="" stop-color="#06D5F7"></stop>
</linearGradient>
<path style="" d="M161.364,211.569
	c-12.924-22.28-25.841-44.562-38.789-66.831l-5.219-8.98h41.597l1.729,2.974c17.177,29.567,34.421,59.103,51.519,88.716
	c2.123,3.678,4.201,7.379,6.256,11.096l4.897,8.867h-50.009c-10.523,0-21.049-0.174-31.573-0.174
	c-70.095-0.006-56.309,7.947-91.357-52.752C15.363,133.779,15.36,149.692,50.41,88.984c35.047-60.707,21.267-52.757,91.369-52.752
	c70.094,0.002,56.312-7.955,91.361,52.75c6.219,10.772,12.983,21.301,19.078,32.102c3.561,6.306,7.122,13.231,7.122,20.653
	c0,7.187-3.322,13.851-6.746,19.985c-5.138,9.193-10.862,18.195-16.261,27.298l0.128,0.215l-9.746,16.876l-20.901-36.202
	c20.435-34.147,19.152-23.059-3.862-62.917c-24.379-42.224-11.418-34.741-60.175-34.741c-48.76,0-35.796-7.485-60.175,34.741
	c-24.379,42.225-24.381,27.262,0,69.487c24.379,42.222,11.418,34.738,60.175,34.739
	C148.253,211.219,154.831,211.468,161.364,211.569z" fill-rule="evenodd" clip-rule="evenodd" fill="url(#SVGID_1_)"></path>
</svg></g></g>  <!----></svg>